<svg id="Capa_1" enable-background="new 0 0 510 510" height="512" viewBox="0 0 510 510" width="512" xmlns="http://www.w3.org/2000/svg" xmlns:xlink="http://www.w3.org/1999/xlink"><linearGradient id="lg1"><stop offset="0" stop-color="#f0ddfc"/><stop offset=".4474" stop-color="#c1aec7"/><stop offset="1" stop-color="#8a7889"/></linearGradient><linearGradient id="SVGID_1_" gradientUnits="userSpaceOnUse" x1="255" x2="255" xlink:href="#lg1" y1="13.187" y2="60.575"/><linearGradient id="SVGID_2_" gradientUnits="userSpaceOnUse" x1="255" x2="255" xlink:href="#lg1" y1="41.386" y2="74.703"/><linearGradient id="lg2"><stop offset="0" stop-color="#8a7889"/><stop offset="1" stop-color="#6e566e"/></linearGradient><linearGradient id="SVGID_3_" gradientUnits="userSpaceOnUse" x1="158.73" x2="443.342" xlink:href="#lg2" y1="243.892" y2="376.22"/><linearGradient id="SVGID_4_" gradientUnits="userSpaceOnUse" x1="452.054" x2="-38.673" xlink:href="#lg2" y1="485.706" y2="-5.021"/><linearGradient id="SVGID_5_" gradientUnits="userSpaceOnUse" x1="443.526" x2="200.677" y1="477.177" y2="234.328"><stop offset="0" stop-color="#6e566e" stop-opacity="0"/><stop offset=".2944" stop-color="#674d66" stop-opacity=".294"/><stop offset="1" stop-color="#593b56"/></linearGradient><linearGradient id="lg3"><stop offset="0" stop-color="#cdec7a"/><stop offset=".34" stop-color="#c1ea76"/><stop offset=".9563" stop-color="#a1e66b"/><stop offset="1" stop-color="#9ee66a"/></linearGradient><linearGradient id="SVGID_6_" gradientUnits="userSpaceOnUse" x1="255" x2="255" xlink:href="#lg3" y1="400.304" y2="468.794"/><linearGradient id="SVGID_7_" gradientUnits="userSpaceOnUse" x1="255" x2="255" xlink:href="#lg3" y1="307.412" y2="375.903"/><linearGradient id="SVGID_8_" gradientUnits="userSpaceOnUse" x1="255" x2="255" xlink:href="#lg3" y1="214.52" y2="283.011"/><linearGradient id="SVGID_9_" gradientUnits="userSpaceOnUse" x1="255" x2="255" xlink:href="#lg3" y1="121.629" y2="190.119"/><linearGradient id="lg4"><stop offset="0" stop-color="#9ee66a" stop-opacity="0"/><stop offset=".1524" stop-color="#93e267" stop-opacity=".152"/><stop offset=".4172" stop-color="#77d660" stop-opacity=".417"/><stop offset=".7603" stop-color="#49c254" stop-opacity=".76"/><stop offset="1" stop-color="#25b34b"/></linearGradient><linearGradient id="SVGID_10_" gradientUnits="userSpaceOnUse" x1="386.693" x2="204.202" xlink:href="#lg4" y1="492.84" y2="310.349"/><linearGradient id="SVGID_11_" gradientUnits="userSpaceOnUse" x1="409.902" x2="227.411" xlink:href="#lg4" y1="469.632" y2="287.141"/><linearGradient id="SVGID_12_" gradientUnits="userSpaceOnUse" x1="436.794" x2="254.303" xlink:href="#lg4" y1="442.739" y2="260.248"/><linearGradient id="SVGID_13_" gradientUnits="userSpaceOnUse" x1="137.764" x2="372.236" xlink:href="#lg2" y1="288.652" y2="288.652"/><linearGradient id="lg5"><stop offset="0" stop-color="#ffd945"/><stop offset=".3043" stop-color="#ffcd3e"/><stop offset=".8558" stop-color="#ffad2b"/><stop offset="1" stop-color="#ffa325"/></linearGradient><linearGradient id="SVGID_14_" gradientUnits="userSpaceOnUse" x1="180.584" x2="319.224" xlink:href="#lg5" y1="214.236" y2="352.876"/><linearGradient id="SVGID_15_" gradientTransform="matrix(-1 0 0 -1 510 -5874)" gradientUnits="userSpaceOnUse" x1="185.232" x2="315.213" xlink:href="#lg5" y1="-6232.42" y2="-6102.439"/><linearGradient id="SVGID_16_" gradientUnits="userSpaceOnUse" x1="235.386" x2="271.928" xlink:href="#lg5" y1="269.038" y2="305.579"/><linearGradient id="SVGID_17_" gradientUnits="userSpaceOnUse" x1="238.656" x2="271.345" xlink:href="#lg2" y1="288.652" y2="288.652"/><linearGradient id="SVGID_18_" gradientUnits="userSpaceOnUse" x1="208.836" x2="301.164" xlink:href="#lg2" y1="233.951" y2="233.951"/><linearGradient id="SVGID_19_" gradientUnits="userSpaceOnUse" x1="265.863" x2="335.237" xlink:href="#lg2" y1="319.581" y2="319.581"/><linearGradient id="SVGID_20_" gradientUnits="userSpaceOnUse" x1="174.763" x2="244.137" xlink:href="#lg2" y1="319.581" y2="319.581"/><g><path d="m311.923 48.183h-113.846v-29.127c0-10.524 8.532-19.056 19.056-19.056h75.734c10.524 0 19.056 8.532 19.056 19.056z" fill="url(#SVGID_1_)"/><path d="m360.53 75.877h-211.06v-26.067c0-9.419 7.635-17.054 17.054-17.054h176.952c9.419 0 17.054 7.635 17.054 17.054z" fill="url(#SVGID_2_)"/><path d="m364.32 510h-218.64c-27.566 0-49.912-22.346-49.912-49.912v-342.873c0-27.566 22.346-49.912 49.912-49.912h218.64c27.566 0 49.912 22.346 49.912 49.912v342.872c0 27.567-22.347 49.913-49.912 49.913z" fill="url(#SVGID_3_)"/><path d="m353.508 488.109h-197.016c-24.839 0-44.976-20.136-44.976-44.976v-308.963c0-24.839 20.136-44.976 44.976-44.976h197.016c24.84 0 44.976 20.136 44.976 44.976v308.963c0 24.84-20.136 44.976-44.976 44.976z" fill="url(#SVGID_4_)"/><path d="m414.232 460.088v-177.945l-74.25-74.25c-21.359-22.469-51.534-36.477-84.982-36.477-64.748 0-117.236 52.489-117.236 117.236 0 33.448 14.008 63.623 36.477 84.982l136.366 136.366h53.712c27.566 0 49.913-22.346 49.913-49.912z" fill="url(#SVGID_5_)"/><g><path d="m367.378 468.39h-224.756c-9.742 0-17.639-7.897-17.639-17.639v-45.525c0-9.742 7.897-17.639 17.639-17.639h224.756c9.742 0 17.639 7.897 17.639 17.639v45.525c0 9.742-7.897 17.639-17.639 17.639z" fill="url(#SVGID_6_)"/><path d="m367.378 375.499h-224.756c-9.742 0-17.639-7.897-17.639-17.639v-45.525c0-9.742 7.897-17.639 17.639-17.639h224.756c9.742 0 17.639 7.897 17.639 17.639v45.525c0 9.741-7.897 17.639-17.639 17.639z" fill="url(#SVGID_7_)"/><path d="m367.378 282.607h-224.756c-9.742 0-17.639-7.897-17.639-17.639v-45.525c0-9.742 7.897-17.639 17.639-17.639h224.756c9.742 0 17.639 7.897 17.639 17.639v45.525c0 9.742-7.897 17.639-17.639 17.639z" fill="url(#SVGID_8_)"/><path d="m367.378 189.715h-224.756c-9.742 0-17.639-7.897-17.639-17.639v-45.525c0-9.742 7.897-17.639 17.639-17.639h224.756c9.742 0 17.639 7.897 17.639 17.639v45.525c0 9.742-7.897 17.639-17.639 17.639z" fill="url(#SVGID_9_)"/></g><g><path d="m367.377 387.586h-179.185l80.806 80.806h98.379c9.745 0 17.641-7.896 17.641-17.641v-45.524c0-9.746-7.895-17.641-17.641-17.641z" fill="url(#SVGID_10_)"/><path d="m367.377 294.7h-224.754c-1.613 0-3.181.214-4.67.632 1.726 30.77 15.329 58.371 36.286 78.302l1.861 1.861h191.277c9.745 0 17.641-7.896 17.641-17.63v-45.524c0-9.746-7.895-17.641-17.641-17.641z" fill="url(#SVGID_11_)"/><path d="m339.979 207.893c-1.996-2.109-4.083-4.14-6.226-6.091h-157.506c-22.096 20.055-36.523 48.434-38.294 80.186 1.489.406 3.057.62 4.67.62h224.754c9.745 0 17.641-7.896 17.641-17.641v-12.035z" fill="url(#SVGID_12_)"/></g><g><circle cx="255" cy="288.652" fill="url(#SVGID_13_)" r="117.236"/><circle cx="255" cy="288.652" fill="url(#SVGID_14_)" r="98.937"/><circle cx="255" cy="288.652" fill="url(#SVGID_15_)" r="92.757"/><circle cx="255" cy="288.652" fill="url(#SVGID_16_)" r="26.077"/><g><circle cx="255" cy="288.652" fill="url(#SVGID_17_)" r="16.345"/><path d="m300.524 228.763-14.122 27.61c-1.666 3.257-5.825 4.079-8.758 1.892-.02-.015-.039-.029-.059-.044-6.3-4.696-14.116-7.459-22.585-7.459s-16.285 2.764-22.585 7.459c-.02.015-.039.029-.059.044-2.933 2.187-7.092 1.365-8.758-1.892l-14.122-27.61c-1.359-2.657-.494-5.926 2.012-7.546 12.522-8.095 27.458-12.802 43.511-12.802s30.99 4.707 43.512 12.802c2.507 1.62 3.372 4.889 2.013 7.546z" fill="url(#SVGID_18_)"/><g><path d="m335.237 288.652c0 31.423-18.059 58.615-44.375 71.8-2.685 1.345-5.961.444-7.564-2.095l-16.543-26.208c-1.956-3.098-.551-7.113 2.83-8.522.022-.009.044-.018.066-.028 13.64-5.735 23.239-19.227 23.239-34.948 0-1.307-.059-2.615-.208-3.923-.002-.024-.005-.049-.007-.073-.362-3.639 2.474-6.785 6.124-6.556l30.916 1.94c3.005.189 5.357 2.637 5.467 5.645.036.987.055 1.975.055 2.968z" fill="url(#SVGID_19_)"/><path d="m243.246 332.149-16.543 26.208c-1.603 2.539-4.879 3.44-7.564 2.095-26.316-13.185-44.375-40.378-44.375-71.8 0-.992.019-1.981.055-2.966.111-3.009 2.463-5.457 5.467-5.645l30.916-1.94c3.65-.229 6.486 2.916 6.124 6.556-.002.024-.005.049-.007.073-.149 1.308-.208 2.616-.208 3.923 0 15.721 9.599 29.212 23.239 34.948.022.009.044.018.066.028 3.381 1.408 4.785 5.423 2.83 8.52z" fill="url(#SVGID_20_)"/></g></g></g></g></svg>