<svg id="Capa_1" enable-background="new 0 0 510 510" height="512" viewBox="0 0 510 510" width="512" xmlns="http://www.w3.org/2000/svg" xmlns:xlink="http://www.w3.org/1999/xlink"><linearGradient id="lg1"><stop offset="0" stop-color="#7e8595"/><stop offset="1" stop-color="#555a66"/></linearGradient><linearGradient id="SVGID_1_" gradientUnits="userSpaceOnUse" x1="4.052" x2="464.587" xlink:href="#lg1" y1="35.76" y2="438.106"/><linearGradient id="SVGID_2_" gradientUnits="userSpaceOnUse" x1="265.122" x2="-401.965" y1="260.155" y2="-79.622"><stop offset="0" stop-color="#e9edf5" stop-opacity="0"/><stop offset="1" stop-color="#e9edf5"/></linearGradient><linearGradient id="lg2"><stop offset="0" stop-color="#7e8595" stop-opacity="0"/><stop offset="1" stop-color="#7e8595"/></linearGradient><linearGradient id="SVGID_3_" gradientUnits="userSpaceOnUse" x1="425.945" x2="-194.164" xlink:href="#lg2" y1="374.305" y2="-58.479"/><linearGradient id="SVGID_4_" gradientUnits="userSpaceOnUse" x1="420.232" x2="300.102" xlink:href="#lg2" y1="221.065" y2="100.935"/><linearGradient id="SVGID_5_" gradientUnits="userSpaceOnUse" x1="58.211" x2="419.354" y1="83.076" y2="398.588"><stop offset="0" stop-color="#92f37f"/><stop offset="1" stop-color="#4ab272"/></linearGradient><linearGradient id="SVGID_6_" gradientUnits="userSpaceOnUse" x1="258.655" x2="133.806" y1="272.079" y2="101.972"><stop offset="0" stop-color="#92f37f" stop-opacity="0"/><stop offset="1" stop-color="#ffee83"/></linearGradient><linearGradient id="SVGID_7_" gradientUnits="userSpaceOnUse" x1="301.226" x2="-36.562" y1="286.363" y2="281.551"><stop offset="0" stop-color="#ffda45"/><stop offset="1" stop-color="#ffa425"/></linearGradient><linearGradient id="SVGID_8_" gradientUnits="userSpaceOnUse" x1="243.51" x2="263.047" y1="339.331" y2="261.183"><stop offset="0" stop-color="#ffda45" stop-opacity="0"/><stop offset="1" stop-color="#ffee83"/></linearGradient><linearGradient id="SVGID_9_" gradientUnits="userSpaceOnUse" x1="270.54" x2="51.106" y1="403.626" y2="328.392"><stop offset="0" stop-color="#bec3d2"/><stop offset=".97" stop-color="#808797"/><stop offset="1" stop-color="#7e8595"/></linearGradient><linearGradient id="SVGID_10_" gradientUnits="userSpaceOnUse" x1="327.286" x2="426.998" y1="339.224" y2="528.213"><stop offset="0" stop-color="#18cffc"/><stop offset="1" stop-color="#4a98f7"/></linearGradient><linearGradient id="SVGID_11_" gradientUnits="userSpaceOnUse" x1="255" x2="255" xlink:href="#lg1" y1="49.919" y2="15.196"/><linearGradient id="SVGID_12_" gradientUnits="userSpaceOnUse" x1="364.078" x2="308.547" y1="232.75" y2="120.762"><stop offset="0" stop-color="#4ab272" stop-opacity="0"/><stop offset="1" stop-color="#009245"/></linearGradient><linearGradient id="lg3"><stop offset="0" stop-color="#ff7044"/><stop offset="1" stop-color="#f92814"/></linearGradient><linearGradient id="SVGID_13_" gradientUnits="userSpaceOnUse" x1="256.882" x2="421.014" xlink:href="#lg3" y1="57.71" y2="221.842"/><linearGradient id="SVGID_14_" gradientUnits="userSpaceOnUse" x1="288.889" x2="231.211" y1="89.765" y2="32.088"><stop offset="0" stop-color="#ff7044" stop-opacity="0"/><stop offset="1" stop-color="#ffa425"/></linearGradient><linearGradient id="SVGID_15_" gradientTransform="matrix(-1 0 0 -1 -2682 -1618)" gradientUnits="userSpaceOnUse" x1="-3019.709" x2="-2916.579" xlink:href="#lg3" y1="-1756.539" y2="-1653.41"/><linearGradient id="SVGID_16_" gradientUnits="userSpaceOnUse" x1="360.324" x2="314.616" y1="161.155" y2="115.446"><stop offset="0" stop-color="#f92814" stop-opacity="0"/><stop offset="1" stop-color="#c1272d"/></linearGradient><linearGradient id="SVGID_17_" gradientUnits="userSpaceOnUse" x1="296.275" x2="321.028" y1="91.722" y2="129.47"><stop offset="0" stop-color="#f9f7fc"/><stop offset="1" stop-color="#f0ddfc"/></linearGradient><linearGradient id="SVGID_18_" gradientUnits="userSpaceOnUse" x1="182.738" x2="182.738" xlink:href="#lg1" y1="50.104" y2="14.955"/><linearGradient id="SVGID_19_" gradientTransform="matrix(-1 0 0 -1 510 951.747)" gradientUnits="userSpaceOnUse" x1="237.202" x2="268.135" xlink:href="#lg2" y1="436.106" y2="505.222"/><linearGradient id="SVGID_20_" gradientUnits="userSpaceOnUse" x1="242.867" x2="261.642" xlink:href="#lg1" y1="435.276" y2="498.097"/><path d="m92.632 477.043v-444.086c0-18.202 14.755-32.957 32.957-32.957h258.821c18.202 0 32.957 14.755 32.957 32.957v444.085c0 18.202-14.755 32.957-32.957 32.957h-258.821c-18.202.001-32.957-14.754-32.957-32.956z" fill="url(#SVGID_1_)"/><path d="m100.592 470.966v-431.931c0-17.492 14.18-31.672 31.672-31.672h245.472c17.492 0 31.672 14.18 31.672 31.672v431.931c0 17.492-14.18 31.672-31.672 31.672h-245.472c-17.492 0-31.672-14.18-31.672-31.672z" fill="url(#SVGID_2_)"/><path d="m388.796 444.578h-267.592c-5.574 0-10.092-4.518-10.092-10.092v-358.972c0-5.574 4.518-10.092 10.092-10.092h267.592c5.574 0 10.092 4.518 10.092 10.092v358.973c0 5.573-4.518 10.091-10.092 10.091z" fill="url(#SVGID_3_)"/><path d="m417.368 101.957-50.801-50.801c-15.01-16.027-36.347-26.056-60.038-26.056-45.233 0-81.802 36.185-82.256 81.416-.241 24.018 9.822 45.678 26.028 60.864l167.066 167.065v-232.488z" fill="url(#SVGID_4_)"/><path d="m380.255 436.755h-250.51c-4.713 0-8.534-3.821-8.534-8.534v-346.442c0-4.713 3.821-8.534 8.534-8.534h250.51c4.713 0 8.534 3.821 8.534 8.534v346.441c0 4.714-3.821 8.535-8.534 8.535z" fill="url(#SVGID_5_)"/><path d="m121.211 103.181v325.039c0 4.713 3.821 8.534 8.534 8.534h250.51c4.713 0 8.534-3.821 8.534-8.534v-325.039z" fill="url(#SVGID_6_)"/><path d="m388.789 199.518h-11.679c-29.122 0-56.5 11.341-77.091 31.933-6.624 6.623-12.284 13.952-16.923 21.811v-6.759c0-29.122-11.34-56.5-31.933-77.091-20.591-20.592-47.97-31.933-77.091-31.933h-52.861v28h52.861c21.643 0 41.989 8.428 57.293 23.731 15.303 15.303 23.731 35.65 23.731 57.292v69.906h-.096v120.346h50.204v-120.345h-9.118v-7.866c0-21.643 8.428-41.989 23.732-57.293s35.65-23.731 57.293-23.731h11.679v-28.001z" fill="#e9edf5"/><path d="m121.211 255h267.578v61.409h-267.578z" fill="url(#SVGID_7_)"/><path d="m121.211 270.333h267.578v46.076h-267.578z" fill="url(#SVGID_8_)"/><path d="m255 316.41v120.34h-125.26c-4.71 0-8.53-3.82-8.53-8.53v-111.81z" fill="url(#SVGID_9_)"/><path d="m388.79 316.41v111.81c0 4.71-3.82 8.53-8.53 8.53h-75.06v-120.34z" fill="url(#SVGID_10_)"/><path d="m216.319 25.1h77.362c5.383 0 9.747 4.364 9.747 9.747 0 5.383-4.364 9.747-9.747 9.747h-77.362c-5.383 0-9.747-4.364-9.747-9.747 0-5.383 4.364-9.747 9.747-9.747z" fill="url(#SVGID_11_)"/><path d="m388.789 109.496c0-6.51-5.277-11.788-11.788-11.788h-152.171c-.335 2.892-.526 5.83-.556 8.808-.24 23.957 9.772 45.57 25.906 60.749l138.609 138.609z" fill="url(#SVGID_12_)"/><path d="m388.789 107.36c0-45.431-36.829-82.26-82.259-82.26-45.233 0-81.802 36.185-82.256 81.416-.343 34.161 20.142 63.574 49.533 76.331 4.918 2.135 9.125 5.629 12.139 10.063l14.718 21.653c2.814 4.14 8.916 4.14 11.731 0l14.718-21.652c3.005-4.42 7.19-7.918 12.094-10.044 29.172-12.641 49.582-41.688 49.582-75.507z" fill="url(#SVGID_13_)"/><path d="m306.53 213.569c-.476 0-1.671-.128-2.475-1.31l-14.718-21.653c-3.461-5.092-8.267-9.075-13.897-11.519-28.908-12.547-47.382-41.017-47.066-72.53.208-20.787 8.419-40.248 23.12-54.797 14.699-14.548 34.247-22.561 55.036-22.561 43.098 0 78.16 35.063 78.16 78.161 0 31.182-18.493 59.344-47.114 71.746-5.598 2.426-10.389 6.403-13.854 11.5l-14.718 21.652c-.803 1.183-1.998 1.311-2.474 1.311z" fill="url(#SVGID_14_)"/><circle cx="306.53" cy="107.36" fill="url(#SVGID_15_)" r="51.708"/><path d="m386.216 127.841-49.126-49.126c-7.642-8.15-18.505-13.243-30.56-13.243-23.135 0-41.889 18.754-41.889 41.889 0 12.054 5.093 22.917 13.243 30.56l51.774 51.774c2.66-2.91 5.906-5.247 9.549-6.826 23.072-10 40.661-30.261 47.009-55.028z" fill="url(#SVGID_16_)"/><circle cx="306.53" cy="107.36" fill="url(#SVGID_17_)" r="41.889"/><circle cx="182.738" cy="34.847" fill="url(#SVGID_18_)" r="9.866"/><path d="m241.867 449.832h26.265c14.205 0 25.721 11.516 25.721 25.721v.641c0 14.205-11.516 25.721-25.721 25.721h-26.265c-14.205 0-25.721-11.516-25.721-25.721v-.641c0-14.206 11.516-25.721 25.721-25.721z" fill="url(#SVGID_19_)"/><path d="m266.945 498.436h-23.89c-12.461 0-22.563-10.102-22.563-22.563 0-12.461 10.102-22.563 22.563-22.563h23.89c12.461 0 22.563 10.102 22.563 22.563 0 12.462-10.102 22.563-22.563 22.563z" fill="url(#SVGID_20_)"/></svg>