<svg id="Capa_1" enable-background="new 0 0 510 510" height="512" viewBox="0 0 510 510" width="512" xmlns="http://www.w3.org/2000/svg" xmlns:xlink="http://www.w3.org/1999/xlink"><linearGradient id="lg1"><stop offset="0" stop-color="#537983"/><stop offset="1" stop-color="#3e5959"/></linearGradient><linearGradient id="SVGID_1_" gradientUnits="userSpaceOnUse" x1="205.07" x2="317.354" xlink:href="#lg1" y1="110.869" y2="360.622"/><linearGradient id="SVGID_2_" gradientUnits="userSpaceOnUse" x1="217.006" x2="359.499" y1="127.662" y2="457.646"><stop offset="0" stop-color="#c1e9af"/><stop offset="1" stop-color="#4fc123"/></linearGradient><linearGradient id="SVGID_3_" gradientUnits="userSpaceOnUse" x1="255" x2="255" xlink:href="#lg1" y1="362.568" y2="421.334"/><linearGradient id="SVGID_4_" gradientUnits="userSpaceOnUse" x1="255" x2="255" xlink:href="#lg1" y1="402.472" y2="426.272"/><linearGradient id="SVGID_5_" gradientUnits="userSpaceOnUse" x1="255" x2="255" xlink:href="#lg1" y1="407.161" y2="390.645"/><linearGradient id="SVGID_6_" gradientUnits="userSpaceOnUse" x1="255" x2="255" xlink:href="#lg1" y1="331.093" y2="382.513"/><linearGradient id="SVGID_7_" gradientUnits="userSpaceOnUse" x1="366.349" x2="222.349" y1="404.074" y2="112.074"><stop offset="0" stop-color="#4fc123" stop-opacity="0"/><stop offset=".1348" stop-color="#4bab2f" stop-opacity=".135"/><stop offset=".385" stop-color="#468741" stop-opacity=".385"/><stop offset=".6201" stop-color="#426e4e" stop-opacity=".62"/><stop offset=".8318" stop-color="#3f5e56" stop-opacity=".832"/><stop offset="1" stop-color="#3e5959"/></linearGradient><linearGradient id="SVGID_8_" gradientUnits="userSpaceOnUse" x1="233.06" x2="265.937" xlink:href="#lg1" y1="123.603" y2="220.18"/><linearGradient id="lg2"><stop offset="0" stop-color="#3e5959" stop-opacity="0"/><stop offset=".8153" stop-color="#394c4c" stop-opacity=".815"/><stop offset="1" stop-color="#384949"/></linearGradient><linearGradient id="SVGID_9_" gradientUnits="userSpaceOnUse" x1="224.878" x2="252.276" xlink:href="#lg2" y1="68.3" y2="177.207"/><linearGradient id="SVGID_10_" gradientUnits="userSpaceOnUse" x1="214.833" x2="305.246" xlink:href="#lg1" y1="192.524" y2="287.047"/><linearGradient id="SVGID_11_" gradientUnits="userSpaceOnUse" x1="255" x2="255" xlink:href="#lg2" y1="320.248" y2="261.702"/><linearGradient id="SVGID_12_" gradientUnits="userSpaceOnUse" x1="253" x2="189.498" xlink:href="#lg2" y1="204.795" y2="204.795"/><linearGradient id="lg3"><stop offset="0" stop-color="#ffe177"/><stop offset="1" stop-color="#fe9738"/></linearGradient><linearGradient id="SVGID_13_" gradientUnits="userSpaceOnUse" x1="180.667" x2="195.311" xlink:href="#lg3" y1="201.497" y2="201.497"/><linearGradient id="SVGID_14_" gradientUnits="userSpaceOnUse" x1="177.209" x2="194.709" xlink:href="#lg3" y1="286.568" y2="297.318"/><linearGradient id="SVGID_15_" gradientUnits="userSpaceOnUse" x1="182.619" x2="194.369" xlink:href="#lg3" y1="270.979" y2="277.979"/><g><g><g><g><g><path d="m456.744 71.883h-403.488c-8.838 0-16.003 7.165-16.003 16.003v271.528h435.494v-271.528c0-8.838-7.165-16.003-16.003-16.003z" fill="url(#SVGID_1_)"/><path d="m440.741 87.274h-371.482c-8.887 0-16.091 7.204-16.091 16.091v224.568c0 8.887 7.204 16.091 16.091 16.091h371.482c8.887 0 16.091-7.204 16.091-16.091v-224.569c-.001-8.886-7.205-16.09-16.091-16.09z" fill="url(#SVGID_2_)"/><g><path d="m469.851 357.321h-429.702c-4.273 0-8.253 2.172-10.566 5.765l-24.871 38.643c-1.657 2.575.191 5.963 3.253 5.963h494.069c3.062 0 4.91-3.388 3.253-5.963l-24.871-38.643c-2.312-3.593-6.292-5.765-10.565-5.765z" fill="url(#SVGID_3_)"/><path d="m494.259 438.117h-478.518c-8.694 0-15.741-7.047-15.741-15.74v-9.444c0-8.693 7.047-15.741 15.741-15.741h478.518c8.693 0 15.741 7.047 15.741 15.741v9.444c0 8.693-7.047 15.74-15.741 15.74z" fill="url(#SVGID_4_)"/><path d="m229.815 387.048h50.37c5.216 0 9.444 4.228 9.444 9.444 0 5.216-4.228 9.444-9.444 9.444h-50.37c-5.216 0-9.444-4.228-9.444-9.444-.001-5.216 4.228-9.444 9.444-9.444z" fill="url(#SVGID_5_)"/><path d="m459.184 375.81-10.401-18.489h-387.566l-10.401 18.489c-1.947 3.462.554 7.739 4.526 7.739h399.316c3.972 0 6.474-4.277 4.526-7.739z" fill="url(#SVGID_6_)"/></g></g></g></g></g><path d="m456.831 327.932v-124.83c-8.215-8.191-15.145-15.146-15.242-15.399-.581-1.505-1.747-2.813-3.506-3.529l-169.14-68.722c-7.658-3.112-16.228-3.112-23.886 0l-169.14 68.722c-3.924 1.594-4.929 6.134-3.017 9.239.659 1.07 65.439 65.501 65.439 65.501v17.672c0 2.787 2.379 5.462 6.739 7.949l59.487 59.488h236.175c8.887 0 16.091-7.204 16.091-16.091z" fill="url(#SVGID_7_)"/><g><g><path d="m243.057 113.452-169.14 68.722c-5.276 2.144-5.276 9.614 0 11.758l178.694 72.604c1.532.622 3.246.622 4.777 0l178.694-72.604c5.276-2.144 5.276-9.614 0-11.758l-169.14-68.722c-7.657-3.112-16.227-3.112-23.885 0z" fill="url(#SVGID_8_)"/><path d="m71.783 192.505c.578-.582 1.279-1.079 2.134-1.427l169.14-68.722c7.658-3.112 16.228-3.112 23.886 0l169.14 68.722c.855.347 1.556.845 2.134 1.427 2.988-3.009 2.287-8.535-2.134-10.331l-169.14-68.722c-7.658-3.111-16.228-3.111-23.886 0l-169.14 68.722c-4.421 1.796-5.122 7.322-2.134 10.331z" fill="url(#SVGID_9_)"/><g><path d="m373.661 194.447c0-13.192-53.126-23.886-118.661-23.886s-118.661 10.694-118.661 23.886v80.139c0 13.192 53.126 23.886 118.661 23.886s118.661-10.694 118.661-23.886z" fill="url(#SVGID_10_)"/><ellipse cx="255" cy="274.586" fill="url(#SVGID_11_)" rx="118.661" ry="23.886"/></g></g><path d="m436.083 182.174-169.14-68.722c-7.658-3.112-16.228-3.112-23.886 0l-53.057 21.557v159.562c18.671 2.466 41.001 3.901 65 3.901 65.535 0 118.661-10.694 118.661-23.886v-55.292l62.422-25.362c5.276-2.144 5.276-9.614 0-11.758z" fill="url(#SVGID_12_)"/><g><path d="m188.25 273.497c-2.899 0-5.25-2.351-5.25-5.25v-133.5c0-2.899 2.351-5.25 5.25-5.25 2.899 0 5.25 2.351 5.25 5.25v133.5c0 2.899-2.351 5.25-5.25 5.25z" fill="url(#SVGID_13_)"/><path d="m198.801 287.217c0 5.827-4.724 24.116-10.551 24.116s-10.551-18.289-10.551-24.116 4.724-10.551 10.551-10.551 10.551 4.724 10.551 10.551z" fill="url(#SVGID_14_)"/><circle cx="188.25" cy="274.333" fill="url(#SVGID_15_)" r="9.333"/></g></g></g></svg>